<svg width="137" height="34" viewBox="0 0 137 34" fill="none" xmlns="http://www.w3.org/2000/svg">
<path fill-rule="evenodd" clip-rule="evenodd" d="M18.4359 1C18.7042 2.8222 17.9625 4.6073 16.9841 5.8703C15.9374 7.22501 14.1331 8.2728 12.385 8.21811C12.0658 6.4736 12.8829 4.6761 13.8771 3.4678C14.9677 2.1342 16.8368 1.1111 18.4359 1ZM23.6874 26.6481C24.5886 25.2669 24.9253 24.5702 25.6249 23.0108C20.5365 21.0758 19.7212 13.8418 24.757 11.0653C23.221 9.13901 21.0625 8.02249 19.0251 8.02249C17.557 8.02249 16.5512 8.40561 15.6367 8.75391C14.8747 9.0441 14.1762 9.31021 13.3265 9.31021C12.4084 9.31021 11.5954 9.0186 10.7441 8.71341C9.80859 8.37799 8.82689 8.026 7.60869 8.026C5.32229 8.026 2.88859 9.423 1.34559 11.8114C-0.82341 15.1753 -0.45341 21.4991 3.06389 26.8862C4.32109 28.8142 6.00079 30.9804 8.19789 30.9998C9.10949 31.0088 9.71609 30.7368 10.3726 30.4423C11.1239 30.1053 11.9406 29.739 13.3546 29.7315C14.7769 29.723 15.5807 30.0937 16.3221 30.4357C16.9617 30.7307 17.5549 31.0043 18.4587 30.9945C20.6575 30.9769 22.4302 28.5761 23.6874 26.6481Z" fill="white"/>
<path d="M41.1592 1.05547V7.05397H43.2729C45.2241 7.05397 45.9404 5.78398 45.9404 4.04367C45.9404 2.28587 45.2065 1.05547 43.2729 1.05547H41.1592ZM42.2227 1.94316H43.1455C44.4243 1.94316 44.8462 2.81328 44.8462 4.06126C44.8462 5.54227 44.2617 6.16628 43.1455 6.16628H42.2227V1.94316ZM48.5105 3.67017C48.5105 2.45728 49.1258 1.83766 49.9563 1.83766C50.7913 1.83766 51.3977 2.45728 51.3977 3.67017V4.48317C51.3977 5.69606 50.7913 6.27177 49.9563 6.27177C49.1258 6.27177 48.5105 5.69606 48.5105 4.48317V3.67017ZM47.4339 4.47878C47.4339 6.17506 48.3919 7.17267 49.9519 7.17267C51.512 7.17267 52.4788 6.17506 52.4788 4.47878V3.67897C52.4788 1.97827 51.5252 0.936768 49.9607 0.936768C48.4051 0.936768 47.4339 1.97386 47.4339 3.67897V4.47878ZM56.2354 7.05397L57.3912 2.73418H57.4307L58.5865 7.05397H59.5577L61.1617 1.05547H60.0235L59.0303 5.45877H58.9864L57.8921 1.05547H56.9341L55.8355 5.45877H55.796L54.7984 1.05547H53.6602L55.2598 7.05397H56.2354ZM63.5824 7.05397V2.84398H63.6131L66.3949 7.05397H67.3045V1.05547H66.3114V5.25217H66.2762L63.5033 1.05547H62.5848V7.05397H63.5824ZM73.0255 6.13988H70.4152V1.05547H69.3517V7.05397H73.0255V6.13988ZM75.2704 3.67017C75.2704 2.45728 75.8856 1.83766 76.7162 1.83766C77.5512 1.83766 78.1576 2.45728 78.1576 3.67017V4.48317C78.1576 5.69606 77.5512 6.27177 76.7162 6.27177C75.8856 6.27177 75.2704 5.69606 75.2704 4.48317V3.67017ZM74.1937 4.47878C74.1937 6.17506 75.1518 7.17267 76.7118 7.17267C78.2719 7.17267 79.2387 6.17506 79.2387 4.47878V3.67897C79.2387 1.97827 78.2851 0.936768 76.7206 0.936768C75.1649 0.936768 74.1937 1.97386 74.1937 3.67897V4.47878ZM81.4264 7.05397L81.9362 5.43677H84.006L84.5158 7.05397H85.654L83.6105 1.05547H82.402L80.3542 7.05397H81.4264ZM82.9953 2.13206L83.7775 4.62817H82.1691L82.9557 2.13206H82.9953ZM87.1123 1.05547V7.05397H89.226C91.177 7.05397 91.894 5.78398 91.894 4.04367C91.894 2.28587 91.16 1.05547 89.226 1.05547H87.1123ZM88.1757 1.94316H89.0986C90.377 1.94316 90.799 2.81328 90.799 4.06126C90.799 5.54227 90.215 6.16628 89.0986 6.16628H88.1757V1.94316ZM96.968 3.67017C96.968 2.45728 97.583 1.83766 98.414 1.83766C99.249 1.83766 99.855 2.45728 99.855 3.67017V4.48317C99.855 5.69606 99.249 6.27177 98.414 6.27177C97.583 6.27177 96.968 5.69606 96.968 4.48317V3.67017ZM95.891 4.47878C95.891 6.17506 96.849 7.17267 98.409 7.17267C99.969 7.17267 100.936 6.17506 100.936 4.47878V3.67897C100.936 1.97827 99.982 0.936768 98.418 0.936768C96.862 0.936768 95.891 1.97386 95.891 3.67897V4.47878ZM103.735 7.05397V2.84398H103.765L106.547 7.05397H107.457V1.05547H106.464V5.25217H106.429L103.656 1.05547H102.737V7.05397H103.735ZM114.219 7.05397V1.95627H115.963V1.05547H111.424V1.95627H113.164V7.05397H114.219ZM122.22 7.05397V1.05547H121.157V3.52957H118.485V1.05547H117.422V7.05397H118.485V4.42607H121.157V7.05397H122.22ZM128.047 6.16628H125.318V4.43047H127.884V3.59108H125.318V1.94316H128.047V1.05547H124.259V7.05397H128.047V6.16628Z" fill="white"/>
<path d="M39.1909 29.054L44.4243 13.7244H47.5127L52.7349 29.054H49.8262L48.5234 24.9212H43.2339L41.9312 29.054H39.1909ZM43.8291 22.8548H47.9395L45.9404 16.4759H45.8394L43.8291 22.8548ZM54.4028 33.0633V17.1609H56.9971V18.8792H57.0981C57.3452 18.3102 57.772 17.8571 58.3784 17.5203C58.9848 17.1759 59.7335 17.0037 60.6245 17.0037C61.9796 17.0037 63.0615 17.4791 63.8701 18.43C64.6862 19.3808 65.0942 20.706 65.0942 22.4055V23.8318C65.0942 25.5314 64.6862 26.8528 63.8701 27.7962C63.0615 28.7395 61.9647 29.2112 60.5796 29.2112C59.7111 29.2112 58.9923 29.0428 58.4233 28.7059C57.8543 28.3689 57.435 27.9272 57.1655 27.3806H57.0532V33.0633H54.4028ZM57.0532 23.6858C57.0532 24.6666 57.2965 25.4752 57.7832 26.1116C58.2773 26.7404 58.9399 27.055 59.771 27.055C60.5646 27.055 61.1972 26.763 61.6689 26.179C62.1481 25.5875 62.3877 24.7303 62.3877 23.6071V22.6077C62.3877 21.4996 62.1518 20.6499 61.6802 20.0583C61.2085 19.4594 60.5571 19.16 59.7261 19.16C58.9025 19.16 58.2511 19.4632 57.772 20.0695C57.2928 20.6685 57.0532 21.4697 57.0532 22.4729V23.6858ZM67.4248 33.0633V17.1609H70.019V18.8792H70.1201C70.3671 18.3102 70.7939 17.8571 71.4004 17.5203C72.0068 17.1759 72.7555 17.0037 73.6464 17.0037C75.0016 17.0037 76.0835 17.4791 76.8921 18.43C77.7081 19.3808 78.1162 20.706 78.1162 22.4055V23.8318C78.1162 25.5314 77.7081 26.8528 76.8921 27.7962C76.0835 28.7395 74.9866 29.2112 73.6015 29.2112C72.733 29.2112 72.0143 29.0428 71.4453 28.7059C70.8763 28.3689 70.457 27.9272 70.1875 27.3806H70.0752V33.0633H67.4248ZM70.0752 23.6858C70.0752 24.6666 70.3185 25.4752 70.8051 26.1116C71.2993 26.7404 71.9619 27.055 72.7929 27.055C73.5866 27.055 74.2192 26.763 74.6909 26.179C75.17 25.5875 75.4096 24.7303 75.4096 23.6071V22.6077C75.4096 21.4996 75.1738 20.6499 74.7021 20.0583C74.2304 19.4594 73.5791 19.16 72.748 19.16C71.9244 19.16 71.2731 19.4632 70.7939 20.0695C70.3147 20.6685 70.0752 21.4697 70.0752 22.4729V23.6858ZM83.9003 24.7639H86.5395C86.5994 25.4453 86.9213 26.0143 87.5053 26.4709C88.0893 26.9202 88.8866 27.1447 89.8974 27.1447C90.856 27.1447 91.604 26.9389 92.143 26.5271C92.69 26.1154 92.963 25.5576 92.963 24.8538C92.963 24.2997 92.769 23.858 92.379 23.5286C91.997 23.1992 91.391 22.9334 90.56 22.7312L88.1005 22.136C87.5689 22.0161 87.0823 21.8515 86.6405 21.6418C86.2063 21.4247 85.8058 21.1552 85.4389 20.8333C85.0795 20.5038 84.7988 20.0958 84.5966 19.6092C84.3945 19.1225 84.2934 18.576 84.2934 17.9695C84.2934 17.0186 84.5517 16.1913 85.0683 15.4875C85.5849 14.7762 86.2625 14.2485 87.101 13.9041C87.9395 13.5597 88.8717 13.3875 89.8974 13.3875C90.931 13.3875 91.863 13.5634 92.694 13.9153C93.532 14.2672 94.199 14.7913 94.693 15.4875C95.194 16.1764 95.453 16.9774 95.468 17.8909H92.885C92.832 17.2245 92.548 16.6743 92.031 16.24C91.515 15.8058 90.796 15.5887 89.8749 15.5887C89.0139 15.5887 88.3214 15.7833 87.7973 16.1727C87.2807 16.5545 87.0224 17.0822 87.0224 17.7561C87.0224 18.7519 87.7262 19.4145 89.1337 19.7439L91.604 20.3392C92.218 20.4814 92.757 20.6573 93.222 20.867C93.686 21.0766 94.109 21.3462 94.491 21.6756C94.88 22.0049 95.176 22.4167 95.378 22.9109C95.58 23.4051 95.681 23.9741 95.681 24.618C95.681 26.1004 95.135 27.2609 94.041 28.0994C92.956 28.938 91.511 29.3571 89.7065 29.3571C88.8754 29.3571 88.123 29.2636 87.4491 29.0764C86.7828 28.8893 86.2325 28.646 85.7983 28.3465C85.3715 28.047 85.0121 27.6951 84.7201 27.2908C84.4281 26.879 84.2185 26.4672 84.0912 26.0555C83.9714 25.6362 83.9078 25.2057 83.9003 24.7639ZM97.136 19.3396V17.262H98.843V14.2971H101.426V17.262H103.739V19.3396H101.426V25.4377C101.426 26.0592 101.557 26.486 101.819 26.718C102.088 26.9427 102.556 27.055 103.223 27.055C103.515 27.055 103.709 27.0475 103.807 27.0325V29.0428C103.425 29.1027 103.013 29.1326 102.571 29.1326C101.605 29.1326 100.845 29.0091 100.291 28.762C99.737 28.5149 99.348 28.1518 99.123 27.6727C98.906 27.186 98.798 26.5309 98.798 25.7072V19.3396H97.136ZM105.272 23.5174V22.675C105.272 21.567 105.463 20.59 105.845 19.7439C106.234 18.8979 106.837 18.2241 107.653 17.7225C108.469 17.2208 109.458 16.97 110.618 16.97C112.355 16.97 113.676 17.4866 114.582 18.5197C115.496 19.5455 115.953 20.9268 115.953 22.6638V23.5174C115.953 25.2993 115.5 26.7031 114.594 27.7288C113.688 28.7469 112.363 29.2561 110.618 29.2561C108.874 29.2561 107.545 28.7469 106.631 27.7288C105.725 26.7106 105.272 25.3068 105.272 23.5174ZM107.934 23.45C107.934 23.959 107.979 24.4232 108.069 24.8426C108.159 25.2617 108.301 25.6512 108.495 26.0105C108.69 26.3624 108.967 26.6394 109.327 26.8416C109.686 27.0437 110.116 27.1447 110.618 27.1447C111.112 27.1447 111.539 27.0475 111.898 26.8528C112.258 26.6507 112.531 26.3699 112.718 26.0105C112.913 25.6512 113.051 25.2617 113.134 24.8426C113.224 24.4232 113.268 23.959 113.268 23.45V22.7649C113.268 22.2483 113.224 21.7804 113.134 21.3611C113.051 20.9419 112.913 20.5525 112.718 20.1931C112.523 19.8338 112.246 19.5568 111.887 19.3621C111.535 19.16 111.112 19.0589 110.618 19.0589C110.124 19.0589 109.693 19.16 109.327 19.3621C108.967 19.5643 108.69 19.845 108.495 20.2043C108.301 20.5562 108.159 20.9456 108.069 21.3723C107.979 21.7916 107.934 22.2558 107.934 22.7649V23.45ZM118.384 29.054V17.1721H121.035V18.7107H121.136C121.585 17.5652 122.524 16.9925 123.954 16.9925C124.261 16.9925 124.553 17.0186 124.83 17.071V19.3958C124.643 19.3358 124.276 19.306 123.73 19.306C121.963 19.306 121.079 20.2269 121.079 22.0686V29.054H118.384ZM125.791 23.6409V22.6414C125.791 20.9044 126.248 19.5268 127.161 18.5085C128.074 17.4828 129.336 16.97 130.946 16.97C132.585 16.97 133.851 17.4828 134.742 18.5085C135.64 19.5343 136.089 20.9082 136.089 22.6302V23.6971H128.408V24.0677C128.408 24.9436 128.64 25.6774 129.104 26.2688C129.568 26.8603 130.231 27.1561 131.092 27.1561C131.773 27.1561 132.305 27.0063 132.686 26.7068C133.076 26.4073 133.315 26.0293 133.405 25.5726H135.966C135.928 25.9095 135.842 26.2426 135.707 26.5721C135.58 26.9015 135.389 27.2309 135.135 27.5603C134.88 27.8898 134.573 28.1779 134.214 28.425C133.862 28.6721 133.416 28.8743 132.877 29.0315C132.338 29.1812 131.747 29.2561 131.103 29.2561C129.411 29.2561 128.101 28.7583 127.172 27.7625C126.251 26.7592 125.791 25.3853 125.791 23.6409ZM128.408 21.9113H133.506V21.8889C133.506 21.0354 133.278 20.3429 132.821 19.8112C132.364 19.2797 131.747 19.0139 130.968 19.0139C130.182 19.0139 129.557 19.2834 129.093 19.8226C128.636 20.3541 128.408 21.0428 128.408 21.8889V21.9113Z" fill="white"/>
</svg>
