<svg width="158" height="30" viewBox="0 0 158 30" fill="none" xmlns="http://www.w3.org/2000/svg">
<path d="M0 0V27.6316C0 28.9307 1.06929 30 2.36842 30H32.3684C33.6675 30 34.7368 28.9307 34.7368 27.6316V0H0ZM21.3158 6.31579H13.421C12.5516 6.31579 11.8421 5.60624 11.8421 4.73683C11.8421 3.86741 12.5516 3.1579 13.421 3.1579H21.3158C22.1852 3.1579 22.8947 3.86741 22.8947 4.73683C22.8947 5.60624 22.1852 6.31579 21.3158 6.31579Z" fill="white"/>
<path d="M17.3684 20.8061H30.7195C28.2312 15.9493 23.1945 12.6216 17.3684 12.6216C12.072 12.6216 7.42505 15.3798 4.75684 19.527L10.8628 30H10.9827C10.7029 29.2605 10.543 28.461 10.543 27.6216C10.553 23.8541 13.6009 20.8061 17.3684 20.8061Z" fill="#DB4437"/>
<path d="M4.75742 19.527C3.24843 21.8654 2.36902 24.6436 2.36902 27.6216C2.36902 28.431 2.44897 29.2205 2.57888 30H4.75742H10.8733L4.75742 19.527Z" fill="#0F9D58"/>
<path d="M30.7196 20.806H17.3685C21.136 20.806 24.184 23.864 24.184 27.6215C24.184 28.4609 24.0241 29.2604 23.7443 29.9999H32.1587C32.2786 29.2204 32.3685 28.4309 32.3685 27.6215C32.3685 25.1631 31.7689 22.8547 30.7196 20.806Z" fill="#FFCD40"/>
<path d="M17.3692 20.806C13.6017 20.806 10.5537 23.864 10.5537 27.6215C10.5537 28.4609 10.7136 29.2604 10.9934 29.9999H12.0627H12.4724C12.4125 29.87 12.3525 29.7401 12.2926 29.6002C12.0527 28.9906 11.9128 28.321 11.9128 27.6215C11.9128 24.8933 13.9215 22.6348 16.5397 22.2351C16.8095 22.1951 17.0894 22.1651 17.3692 22.1651C17.649 22.1651 17.9288 22.1951 18.1986 22.2351C20.8169 22.6348 22.8255 24.8933 22.8255 27.6215C22.8255 28.321 22.6856 28.9906 22.4458 29.6002C22.3958 29.7401 22.3358 29.87 22.2659 29.9999H22.6756H23.7449C24.0247 29.2604 24.1846 28.4609 24.1846 27.6215C24.1846 23.854 21.1366 20.806 17.3692 20.806Z" fill="#F1F1F1"/>
<path d="M18.198 22.2351C17.9282 22.1951 17.6484 22.1652 17.3686 22.1652C17.0888 22.1652 16.809 22.1951 16.5391 22.2351C13.9209 22.6348 11.9122 24.8934 11.9122 27.6215C11.9122 28.3211 12.0521 28.9906 12.292 29.6002C12.3419 29.7401 12.4019 29.87 12.4719 29.9999H22.2753C22.3353 29.87 22.3952 29.7401 22.4552 29.6002C22.695 28.9906 22.8349 28.3211 22.8349 27.6215C22.8249 24.8934 20.8163 22.6348 18.198 22.2351Z" fill="#4285F4"/>
<path d="M0 0H34.7368V15H0V0Z" fill="#212121" fill-opacity="0.05"/>
<path d="M46.376 24.7819C46.9266 24.7819 47.398 24.6466 47.79 24.3759C48.182 24.1053 48.4946 23.7273 48.728 23.2419L49.96 23.9699C49.6893 24.6326 49.2366 25.1646 48.602 25.5659C47.9673 25.9579 47.2346 26.1539 46.404 26.1539C45.5266 26.1539 44.724 25.9346 43.996 25.4959C43.2773 25.0479 42.708 24.4226 42.288 23.6199C41.868 22.8173 41.658 21.8979 41.658 20.8619C41.658 19.8259 41.868 18.9066 42.288 18.1039C42.708 17.3013 43.2773 16.6806 43.996 16.2419C44.724 15.8033 45.5266 15.5839 46.404 15.5839C47.2346 15.5839 47.9673 15.7846 48.602 16.1859C49.2366 16.5779 49.6893 17.1053 49.96 17.7679L48.728 18.4959C48.4946 18.0106 48.182 17.6326 47.79 17.3619C47.398 17.0913 46.9266 16.9559 46.376 16.9559C45.7693 16.9559 45.228 17.1193 44.752 17.4459C44.276 17.7633 43.9073 18.2206 43.646 18.8179C43.3846 19.4059 43.254 20.0873 43.254 20.8619C43.254 21.6366 43.3846 22.3226 43.646 22.9199C43.9073 23.5079 44.276 23.9653 44.752 24.2919C45.228 24.6186 45.7693 24.7819 46.376 24.7819Z" fill="white"/>
<path d="M54.7018 18.5659C55.4765 18.5659 56.0972 18.8273 56.5638 19.3499C57.0398 19.8633 57.2778 20.6006 57.2778 21.5619V25.9999H55.8358V21.9959C55.8358 21.3239 55.7098 20.8059 55.4578 20.4419C55.2058 20.0779 54.8232 19.8959 54.3098 19.8959C53.7872 19.8959 53.3392 20.0826 52.9658 20.4559C52.6018 20.8199 52.4198 21.3426 52.4198 22.0239V25.9999H50.9778V15.3459H52.4198V19.7839C52.6625 19.3826 52.9798 19.0793 53.3718 18.8739C53.7732 18.6686 54.2165 18.5659 54.7018 18.5659Z" fill="white"/>
<path d="M62.2263 18.5659C62.469 18.5659 62.693 18.5986 62.8983 18.6639C63.113 18.7293 63.281 18.8179 63.4023 18.9299L62.8563 20.0639C62.6416 19.9333 62.4036 19.8679 62.1423 19.8679C61.6103 19.8679 61.1763 20.0873 60.8403 20.5259C60.5136 20.9646 60.3503 21.5899 60.3503 22.4019V25.9999H58.9083V18.7339H60.1823C60.201 19.1819 60.229 19.5739 60.2663 19.9099C60.481 19.4619 60.7516 19.1259 61.0783 18.9019C61.4143 18.6779 61.797 18.5659 62.2263 18.5659Z" fill="white"/>
<path d="M63.2059 22.3599C63.2059 21.6226 63.3692 20.9646 63.6959 20.3859C64.0225 19.8073 64.4565 19.3593 64.9979 19.0419C65.5485 18.7246 66.1412 18.5659 66.7759 18.5659C67.4012 18.5659 67.9845 18.7246 68.5259 19.0419C69.0672 19.3593 69.5012 19.8073 69.8279 20.3859C70.1545 20.9646 70.3179 21.6226 70.3179 22.3599C70.3179 23.0973 70.1545 23.7553 69.8279 24.3339C69.5012 24.9126 69.0672 25.3606 68.5259 25.6779C67.9845 25.9953 67.4012 26.1539 66.7759 26.1539C66.1412 26.1539 65.5485 25.9953 64.9979 25.6779C64.4565 25.3606 64.0225 24.9126 63.6959 24.3339C63.3692 23.7553 63.2059 23.0973 63.2059 22.3599ZM64.7179 22.3599C64.7179 23.1253 64.9092 23.7319 65.2919 24.1799C65.6839 24.6279 66.1739 24.8519 66.7619 24.8519C67.3592 24.8519 67.8492 24.6279 68.2319 24.1799C68.6145 23.7319 68.8059 23.1253 68.8059 22.3599C68.8059 21.5946 68.6099 20.9879 68.2179 20.5399C67.8352 20.0919 67.3499 19.8679 66.7619 19.8679C66.1739 19.8679 65.6839 20.0919 65.2919 20.5399C64.9092 20.9879 64.7179 21.5946 64.7179 22.3599Z" fill="white"/>
<path d="M79.4084 18.5659C80.099 18.5659 80.659 18.8226 81.0884 19.3359C81.527 19.8399 81.7464 20.5679 81.7464 21.5199V25.9999H80.3464V21.9959C80.3464 21.3333 80.2344 20.8199 80.0104 20.4559C79.7864 20.0826 79.4504 19.8959 79.0024 19.8959C78.545 19.8959 78.1624 20.0826 77.8544 20.4559C77.5557 20.8199 77.4064 21.3426 77.4064 22.0239V25.9999H75.9924V21.9959C75.9924 21.3239 75.8804 20.8059 75.6564 20.4419C75.4417 20.0779 75.1104 19.8959 74.6624 19.8959C74.205 19.8959 73.8224 20.0826 73.5144 20.4559C73.2157 20.8293 73.0664 21.3519 73.0664 22.0239V25.9999H71.6384V18.7339H72.8984C72.9077 19.0326 72.931 19.3966 72.9684 19.8259C73.211 19.4059 73.5144 19.0933 73.8784 18.8879C74.2424 18.6733 74.6437 18.5659 75.0824 18.5659C75.5677 18.5659 75.9924 18.6966 76.3564 18.9579C76.7297 19.2099 77.005 19.5833 77.1824 20.0779C77.4157 19.5739 77.7237 19.1959 78.1064 18.9439C78.4984 18.6919 78.9324 18.5659 79.4084 18.5659Z" fill="white"/>
<path d="M86.4773 18.5659C87.112 18.5659 87.6673 18.7153 88.1433 19.0139C88.6193 19.3033 88.988 19.7046 89.2493 20.2179C89.5106 20.7219 89.6413 21.2913 89.6413 21.9259C89.6413 22.1406 89.618 22.3973 89.5713 22.6959H84.4753C84.5313 23.4239 84.7553 23.9746 85.1473 24.3479C85.5393 24.7119 86.0293 24.8939 86.6173 24.8939C87.3826 24.8939 87.938 24.5766 88.2833 23.9419L89.3613 24.5719C89.1746 25.0759 88.82 25.4679 88.2973 25.7479C87.7746 26.0186 87.1913 26.1539 86.5473 26.1539C85.8846 26.1539 85.2826 26.0093 84.7413 25.7199C84.2 25.4213 83.766 24.9826 83.4393 24.4039C83.122 23.8253 82.9633 23.1346 82.9633 22.3319C82.9633 21.5479 83.122 20.8713 83.4393 20.3019C83.766 19.7326 84.1953 19.3033 84.7273 19.0139C85.2686 18.7153 85.852 18.5659 86.4773 18.5659ZM86.4213 19.8259C85.9453 19.8259 85.53 19.9799 85.1753 20.2879C84.83 20.5866 84.6106 21.0253 84.5173 21.6039H88.1293C88.092 21.0439 87.9193 20.6099 87.6113 20.3019C87.3033 19.9846 86.9066 19.8259 86.4213 19.8259Z" fill="white"/>
<path d="M100.641 15.7379L103.035 23.5219L105.233 15.7519H106.689L103.553 25.9999H102.377L99.9833 18.4679L97.6733 25.9999H96.5113L93.2073 15.7519H94.7893L97.1693 23.5219L99.3953 15.7379H100.641Z" fill="white"/>
<path d="M109.722 18.5659C110.356 18.5659 110.912 18.7153 111.388 19.0139C111.864 19.3033 112.232 19.7046 112.494 20.2179C112.755 20.7219 112.886 21.2913 112.886 21.9259C112.886 22.1406 112.862 22.3973 112.816 22.6959H107.72C107.776 23.4239 108 23.9746 108.392 24.3479C108.784 24.7119 109.274 24.8939 109.862 24.8939C110.627 24.8939 111.182 24.5766 111.528 23.9419L112.606 24.5719C112.419 25.0759 112.064 25.4679 111.542 25.7479C111.019 26.0186 110.436 26.1539 109.792 26.1539C109.129 26.1539 108.527 26.0093 107.986 25.7199C107.444 25.4213 107.01 24.9826 106.684 24.4039C106.366 23.8253 106.208 23.1346 106.208 22.3319C106.208 21.5479 106.366 20.8713 106.684 20.3019C107.01 19.7326 107.44 19.3033 107.972 19.0139C108.513 18.7153 109.096 18.5659 109.722 18.5659ZM109.666 19.8259C109.19 19.8259 108.774 19.9799 108.42 20.2879C108.074 20.5866 107.855 21.0253 107.762 21.6039H111.374C111.336 21.0439 111.164 20.6099 110.856 20.3019C110.548 19.9846 110.151 19.8259 109.666 19.8259Z" fill="white"/>
<path d="M117.791 18.5659C118.351 18.5659 118.874 18.7199 119.359 19.0279C119.854 19.3266 120.25 19.7653 120.549 20.3439C120.848 20.9133 120.997 21.5853 120.997 22.3599C120.997 23.1439 120.848 23.8253 120.549 24.4039C120.25 24.9733 119.854 25.4073 119.359 25.7059C118.874 26.0046 118.351 26.1539 117.791 26.1539C117.306 26.1539 116.848 26.0419 116.419 25.8179C115.99 25.5939 115.644 25.2579 115.383 24.8099C115.346 25.1739 115.318 25.5706 115.299 25.9999H114.025V15.3459H115.467V19.7979C115.728 19.3873 116.06 19.0793 116.461 18.8739C116.872 18.6686 117.315 18.5659 117.791 18.5659ZM117.539 24.8659C118.127 24.8659 118.598 24.6466 118.953 24.2079C119.317 23.7599 119.499 23.1439 119.499 22.3599C119.499 21.5853 119.322 20.9833 118.967 20.5539C118.612 20.1153 118.136 19.8959 117.539 19.8959C116.97 19.8959 116.48 20.0966 116.069 20.4979C115.668 20.8993 115.467 21.5199 115.467 22.3599C115.467 23.2093 115.668 23.8393 116.069 24.2499C116.48 24.6606 116.97 24.8659 117.539 24.8659Z" fill="white"/>
<path d="M132.546 23.1159C132.546 23.7413 132.392 24.2826 132.084 24.7399C131.785 25.1973 131.365 25.5473 130.824 25.7899C130.292 26.0326 129.676 26.1539 128.976 26.1539C127.996 26.1539 127.142 25.9253 126.414 25.4679C125.686 25.0013 125.205 24.3806 124.972 23.6059L126.19 22.9059C126.433 23.5033 126.792 23.9653 127.268 24.2919C127.744 24.6186 128.327 24.7819 129.018 24.7819C129.634 24.7819 130.11 24.6513 130.446 24.3899C130.791 24.1193 130.964 23.7459 130.964 23.2699C130.964 22.8873 130.852 22.5746 130.628 22.3319C130.413 22.0799 130.143 21.8886 129.816 21.7579C129.489 21.6179 129.046 21.4639 128.486 21.2959C127.805 21.0906 127.263 20.8993 126.862 20.7219C126.461 20.5353 126.115 20.2646 125.826 19.9099C125.546 19.5459 125.406 19.0699 125.406 18.4819C125.406 17.8659 125.565 17.3386 125.882 16.8999C126.199 16.4613 126.624 16.1346 127.156 15.9199C127.697 15.6959 128.299 15.5839 128.962 15.5839C129.877 15.5839 130.628 15.7846 131.216 16.1859C131.804 16.5873 132.196 17.1099 132.392 17.7539L131.174 18.4679C130.754 17.4506 129.998 16.9419 128.906 16.9419C128.327 16.9419 127.861 17.0726 127.506 17.3339C127.161 17.5859 126.988 17.9313 126.988 18.3699C126.988 18.6966 127.086 18.9626 127.282 19.1679C127.487 19.3733 127.739 19.5413 128.038 19.6719C128.346 19.7933 128.761 19.9286 129.284 20.0779C129.975 20.2833 130.535 20.4839 130.964 20.6799C131.403 20.8759 131.776 21.1699 132.084 21.5619C132.392 21.9539 132.546 22.4719 132.546 23.1159Z" fill="white"/>
<path d="M137.918 25.7059C137.507 26.0046 136.961 26.1539 136.28 26.1539C135.589 26.1539 135.024 25.9626 134.586 25.5799C134.156 25.1973 133.942 24.5159 133.942 23.5359V19.9659H132.71V18.7339H133.942V16.6339H135.37V18.7339H137.512V19.9659H135.37V23.3399C135.37 24.3479 135.743 24.8519 136.49 24.8519C136.826 24.8519 137.138 24.7633 137.428 24.5859L137.918 25.7059Z" fill="white"/>
<path d="M138.177 22.3599C138.177 21.6226 138.34 20.9646 138.667 20.3859C138.993 19.8073 139.427 19.3593 139.969 19.0419C140.519 18.7246 141.112 18.5659 141.747 18.5659C142.372 18.5659 142.955 18.7246 143.497 19.0419C144.038 19.3593 144.472 19.8073 144.799 20.3859C145.125 20.9646 145.289 21.6226 145.289 22.3599C145.289 23.0973 145.125 23.7553 144.799 24.3339C144.472 24.9126 144.038 25.3606 143.497 25.6779C142.955 25.9953 142.372 26.1539 141.747 26.1539C141.112 26.1539 140.519 25.9953 139.969 25.6779C139.427 25.3606 138.993 24.9126 138.667 24.3339C138.34 23.7553 138.177 23.0973 138.177 22.3599ZM139.689 22.3599C139.689 23.1253 139.88 23.7319 140.263 24.1799C140.655 24.6279 141.145 24.8519 141.733 24.8519C142.33 24.8519 142.82 24.6279 143.203 24.1799C143.585 23.7319 143.777 23.1253 143.777 22.3599C143.777 21.5946 143.581 20.9879 143.189 20.5399C142.806 20.0919 142.321 19.8679 141.733 19.8679C141.145 19.8679 140.655 20.0919 140.263 20.5399C139.88 20.9879 139.689 21.5946 139.689 22.3599Z" fill="white"/>
<path d="M149.927 18.5659C150.17 18.5659 150.394 18.5986 150.599 18.6639C150.814 18.7293 150.982 18.8179 151.103 18.9299L150.557 20.0639C150.342 19.9333 150.104 19.8679 149.843 19.8679C149.311 19.8679 148.877 20.0873 148.541 20.5259C148.214 20.9646 148.051 21.5899 148.051 22.4019V25.9999H146.609V18.7339H147.883C147.902 19.1819 147.93 19.5739 147.967 19.9099C148.182 19.4619 148.452 19.1259 148.779 18.9019C149.115 18.6779 149.498 18.5659 149.927 18.5659Z" fill="white"/>
<path d="M154.421 18.5659C155.055 18.5659 155.611 18.7153 156.087 19.0139C156.563 19.3033 156.931 19.7046 157.193 20.2179C157.454 20.7219 157.585 21.2913 157.585 21.9259C157.585 22.1406 157.561 22.3973 157.515 22.6959H152.419C152.475 23.4239 152.699 23.9746 153.091 24.3479C153.483 24.7119 153.973 24.8939 154.561 24.8939C155.326 24.8939 155.881 24.5766 156.227 23.9419L157.305 24.5719C157.118 25.0759 156.763 25.4679 156.241 25.7479C155.718 26.0186 155.135 26.1539 154.491 26.1539C153.828 26.1539 153.226 26.0093 152.685 25.7199C152.143 25.4213 151.709 24.9826 151.383 24.4039C151.065 23.8253 150.907 23.1346 150.907 22.3319C150.907 21.5479 151.065 20.8713 151.383 20.3019C151.709 19.7326 152.139 19.3033 152.671 19.0139C153.212 18.7153 153.795 18.5659 154.421 18.5659ZM154.365 19.8259C153.889 19.8259 153.473 19.9799 153.119 20.2879C152.773 20.5866 152.554 21.0253 152.461 21.6039H156.073C156.035 21.0439 155.863 20.6099 155.555 20.3019C155.247 19.9846 154.85 19.8259 154.365 19.8259Z" fill="white"/>
<path d="M46.6299 3.68001L49.5699 11H48.5799L47.7699 8.90001H44.7399L43.9699 11H43.0699L45.8799 3.68001H46.6299ZM47.4599 8.10001L46.2199 4.87002L45.0399 8.10001H47.4599Z" fill="white"/>
<path d="M50.0395 5.81001L51.6395 9.87002L53.1395 5.81001H54.0195L51.9295 11H51.2395L49.0695 5.81001H50.0395Z" fill="white"/>
<path d="M56.4297 5.69001C57.0164 5.69001 57.4964 5.87001 57.8697 6.23001C58.243 6.58335 58.4297 7.09002 58.4297 7.75002V11H57.6797C57.6597 10.66 57.6464 10.44 57.6397 10.34C57.4797 10.5933 57.263 10.7867 56.9897 10.92C56.723 11.0467 56.4164 11.11 56.0697 11.11C55.7364 11.11 55.423 11.05 55.1297 10.93C54.843 10.8033 54.613 10.62 54.4397 10.38C54.2664 10.1333 54.1797 9.84002 54.1797 9.50002C54.1797 8.98668 54.3864 8.58335 54.7997 8.29002C55.2197 7.99002 55.7597 7.84002 56.4197 7.84002C56.793 7.84002 57.1797 7.89002 57.5797 7.99002V7.90001C57.5797 7.41335 57.4797 7.05335 57.2797 6.82001C57.0864 6.58001 56.7897 6.46002 56.3897 6.46002C56.0697 6.46002 55.803 6.52668 55.5897 6.66002C55.3764 6.79335 55.1964 6.99002 55.0497 7.25002L54.3997 6.88002C54.5597 6.52002 54.8197 6.23335 55.1797 6.02001C55.5464 5.80001 55.963 5.69001 56.4297 5.69001ZM57.5797 8.70002C57.1597 8.59335 56.7764 8.54002 56.4297 8.54002C55.9964 8.54002 55.6597 8.62335 55.4197 8.79002C55.1864 8.95668 55.0697 9.19002 55.0697 9.49002C55.0697 9.77002 55.1697 9.99001 55.3697 10.15C55.5697 10.3033 55.8297 10.38 56.1497 10.38C56.543 10.38 56.8797 10.2667 57.1597 10.04C57.4397 9.80668 57.5797 9.48668 57.5797 9.08002V8.70002Z" fill="white"/>
<path d="M60.0187 4.88001C59.8654 4.88001 59.732 4.82335 59.6187 4.71002C59.512 4.59002 59.4587 4.45335 59.4587 4.30002C59.4587 4.14668 59.512 4.01335 59.6187 3.90001C59.732 3.78001 59.8654 3.72001 60.0187 3.72001C60.1787 3.72001 60.312 3.77668 60.4187 3.89002C60.532 4.00335 60.5887 4.14002 60.5887 4.30002C60.5887 4.45335 60.532 4.59002 60.4187 4.71002C60.3054 4.82335 60.172 4.88001 60.0187 4.88001ZM60.4387 11H59.5887V5.81001H60.4387V11Z" fill="white"/>
<path d="M62.5508 11H61.7008V3.39001H62.5508V11Z" fill="white"/>
<path d="M65.7934 5.69001C66.3801 5.69001 66.8601 5.87001 67.2334 6.23001C67.6067 6.58335 67.7934 7.09002 67.7934 7.75002V11H67.0434C67.0234 10.66 67.0101 10.44 67.0034 10.34C66.8434 10.5933 66.6267 10.7867 66.3534 10.92C66.0867 11.0467 65.7801 11.11 65.4334 11.11C65.1001 11.11 64.7867 11.05 64.4934 10.93C64.2067 10.8033 63.9767 10.62 63.8034 10.38C63.6301 10.1333 63.5434 9.84002 63.5434 9.50002C63.5434 8.98668 63.7501 8.58335 64.1634 8.29002C64.5834 7.99002 65.1234 7.84002 65.7834 7.84002C66.1567 7.84002 66.5434 7.89002 66.9434 7.99002V7.90001C66.9434 7.41335 66.8434 7.05335 66.6434 6.82001C66.4501 6.58001 66.1534 6.46002 65.7534 6.46002C65.4334 6.46002 65.1667 6.52668 64.9534 6.66002C64.7401 6.79335 64.5601 6.99002 64.4134 7.25002L63.7634 6.88002C63.9234 6.52002 64.1834 6.23335 64.5434 6.02001C64.9101 5.80001 65.3267 5.69001 65.7934 5.69001ZM66.9434 8.70002C66.5234 8.59335 66.1401 8.54002 65.7934 8.54002C65.3601 8.54002 65.0234 8.62335 64.7834 8.79002C64.5501 8.95668 64.4334 9.19002 64.4334 9.49002C64.4334 9.77002 64.5334 9.99001 64.7334 10.15C64.9334 10.3033 65.1934 10.38 65.5134 10.38C65.9067 10.38 66.2434 10.2667 66.5234 10.04C66.8034 9.80668 66.9434 9.48668 66.9434 9.08002V8.70002Z" fill="white"/>
<path d="M71.5024 5.69001C71.8957 5.69001 72.2657 5.80001 72.6124 6.02001C72.9657 6.23335 73.249 6.54668 73.4624 6.96002C73.6757 7.36668 73.7824 7.84668 73.7824 8.40001C73.7824 8.96001 73.6757 9.44668 73.4624 9.86001C73.249 10.2667 72.9657 10.5767 72.6124 10.79C72.2657 11.0033 71.8957 11.11 71.5024 11.11C71.1557 11.11 70.8257 11.0267 70.5124 10.86C70.199 10.6933 69.949 10.4433 69.7624 10.11C69.7357 10.3967 69.7157 10.6933 69.7024 11H68.9524V3.39001H69.8024V6.62002C69.9957 6.31335 70.2424 6.08335 70.5424 5.93001C70.8424 5.77001 71.1624 5.69001 71.5024 5.69001ZM71.3924 10.31C71.8457 10.31 72.209 10.1433 72.4824 9.81002C72.7557 9.47668 72.8924 9.00668 72.8924 8.40001C72.8924 7.80001 72.7557 7.33335 72.4824 7.00002C72.209 6.66668 71.8457 6.50002 71.3924 6.50002C70.959 6.50002 70.5857 6.65335 70.2724 6.96002C69.959 7.26668 69.8024 7.74668 69.8024 8.40001C69.8024 8.84668 69.879 9.21335 70.0324 9.50002C70.1857 9.78668 70.3824 9.99335 70.6224 10.12C70.8624 10.2467 71.119 10.31 71.3924 10.31Z" fill="white"/>
<path d="M75.5766 11H74.7266V3.39001H75.5766V11Z" fill="white"/>
<path d="M78.9792 5.69001C79.4258 5.69001 79.8158 5.79668 80.1492 6.01002C80.4892 6.21668 80.7492 6.50001 80.9292 6.86001C81.1092 7.22002 81.1992 7.62002 81.1992 8.06002C81.1992 8.24668 81.1858 8.41668 81.1592 8.57001H77.4192C77.4525 9.16335 77.6225 9.60668 77.9292 9.90001C78.2358 10.1867 78.6225 10.33 79.0892 10.33C79.6692 10.33 80.0892 10.0967 80.3492 9.63002L80.9992 10C80.8658 10.3533 80.6158 10.6267 80.2492 10.82C79.8892 11.0133 79.4858 11.11 79.0392 11.11C78.5725 11.11 78.1458 11.0033 77.7592 10.79C77.3792 10.5767 77.0758 10.2667 76.8492 9.86001C76.6292 9.44668 76.5192 8.95335 76.5192 8.38002C76.5192 7.82668 76.6292 7.34668 76.8492 6.94001C77.0758 6.53335 77.3758 6.22335 77.7492 6.01002C78.1225 5.79668 78.5325 5.69001 78.9792 5.69001ZM78.9492 6.47002C78.5758 6.47002 78.2492 6.59002 77.9692 6.83002C77.6958 7.07002 77.5225 7.42002 77.4492 7.88002H80.2792C80.2592 7.43335 80.1292 7.08668 79.8892 6.84002C79.6492 6.59335 79.3358 6.47002 78.9492 6.47002Z" fill="white"/>
<path d="M84.8132 4.88001C84.6599 4.88001 84.5266 4.82335 84.4132 4.71002C84.3066 4.59002 84.2532 4.45335 84.2532 4.30002C84.2532 4.14668 84.3066 4.01335 84.4132 3.90001C84.5266 3.78001 84.6599 3.72001 84.8132 3.72001C84.9732 3.72001 85.1066 3.77668 85.2132 3.89002C85.3266 4.00335 85.3832 4.14002 85.3832 4.30002C85.3832 4.45335 85.3266 4.59002 85.2132 4.71002C85.0999 4.82335 84.9666 4.88001 84.8132 4.88001ZM85.2332 11H84.3832V5.81001H85.2332V11Z" fill="white"/>
<path d="M89.0053 5.69001C89.5587 5.69001 90.002 5.87335 90.3353 6.24002C90.6687 6.60668 90.8353 7.12668 90.8353 7.80002V11H89.9853V8.04002C89.9853 7.54668 89.8853 7.16668 89.6853 6.90001C89.492 6.63335 89.202 6.50002 88.8153 6.50002C88.562 6.50002 88.322 6.56002 88.0953 6.68002C87.8753 6.79335 87.6953 6.96668 87.5553 7.20002C87.4153 7.42668 87.3453 7.71002 87.3453 8.05002V11H86.4953V5.81001H87.2453C87.2587 6.14335 87.2787 6.43002 87.3053 6.67002C87.4787 6.35002 87.712 6.10668 88.0053 5.94001C88.3053 5.77335 88.6387 5.69001 89.0053 5.69001Z" fill="white"/>
<path d="M97.2114 10.83C96.9381 11.0167 96.5881 11.11 96.1614 11.11C95.1148 11.11 94.5914 10.5133 94.5914 9.32001V6.54002H93.7314V5.80001H94.5914V4.35001H95.4414V5.80001H96.9514V6.54002H95.4414V9.22002C95.4414 9.94668 95.7148 10.31 96.2614 10.31C96.5014 10.31 96.7248 10.25 96.9314 10.13L97.2114 10.83Z" fill="white"/>
<path d="M100.283 5.69001C100.823 5.69001 101.263 5.87335 101.603 6.24002C101.943 6.60668 102.113 7.12668 102.113 7.80002V11H101.263V8.04002C101.263 7.54668 101.163 7.16668 100.963 6.90001C100.77 6.63335 100.48 6.50002 100.093 6.50002C99.8397 6.50002 99.5997 6.56002 99.3731 6.68002C99.1531 6.79335 98.9731 6.96668 98.8331 7.20002C98.6931 7.42668 98.6231 7.71002 98.6231 8.05002V11H97.7731V3.39001H98.6231V6.59002C98.8031 6.29668 99.0364 6.07335 99.3231 5.92002C99.6097 5.76668 99.9297 5.69001 100.283 5.69001Z" fill="white"/>
<path d="M105.434 5.69001C105.881 5.69001 106.271 5.79668 106.604 6.01002C106.944 6.21668 107.204 6.50001 107.384 6.86001C107.564 7.22002 107.654 7.62002 107.654 8.06002C107.654 8.24668 107.641 8.41668 107.614 8.57001H103.874C103.907 9.16335 104.077 9.60668 104.384 9.90001C104.691 10.1867 105.077 10.33 105.544 10.33C106.124 10.33 106.544 10.0967 106.804 9.63002L107.454 10C107.321 10.3533 107.071 10.6267 106.704 10.82C106.344 11.0133 105.941 11.11 105.494 11.11C105.027 11.11 104.601 11.0033 104.214 10.79C103.834 10.5767 103.531 10.2667 103.304 9.86001C103.084 9.44668 102.974 8.95335 102.974 8.38002C102.974 7.82668 103.084 7.34668 103.304 6.94001C103.531 6.53335 103.831 6.22335 104.204 6.01002C104.577 5.79668 104.987 5.69001 105.434 5.69001ZM105.404 6.47002C105.031 6.47002 104.704 6.59002 104.424 6.83002C104.151 7.07002 103.977 7.42002 103.904 7.88002H106.734C106.714 7.43335 106.584 7.08668 106.344 6.84002C106.104 6.59335 105.791 6.47002 105.404 6.47002Z" fill="white"/>
</svg>
