<svg width="198" height="30" viewBox="0 0 198 30" fill="none" xmlns="http://www.w3.org/2000/svg">
<path d="M25.8753 8.21937L22.7083 3.125H7.29163L4.11499 8.21937" stroke="white" stroke-width="2.5" stroke-linecap="round" stroke-linejoin="round"/>
<path d="M3.75 9.125C3.75 8.43463 4.30964 7.875 5 7.875H25C25.6904 7.875 26.25 8.43463 26.25 9.125V25C26.25 26.0356 25.4106 26.875 24.375 26.875H5.625C4.58947 26.875 3.75 26.0356 3.75 25V9.125Z" fill="white" stroke="white" stroke-width="2.5" stroke-linejoin="round"/>
<path d="M20 16.875L15 21.875L10 16.875" stroke="#151718" stroke-width="2.5" stroke-linecap="round" stroke-linejoin="round"/>
<path d="M14.9949 11.875V21.875" stroke="#151718" stroke-width="2.5" stroke-linecap="round" stroke-linejoin="round"/>
<path d="M49.8906 14.1875V18.5312C49.7292 18.7448 49.4766 18.9792 49.1328 19.2344C48.7943 19.4844 48.3438 19.7005 47.7812 19.8828C47.2188 20.0651 46.5182 20.1562 45.6797 20.1562C44.9661 20.1562 44.3125 20.0365 43.7188 19.7969C43.125 19.5521 42.612 19.1953 42.1797 18.7266C41.7526 18.2578 41.4219 17.6875 41.1875 17.0156C40.9531 16.3385 40.8359 15.5677 40.8359 14.7031V13.9141C40.8359 13.0547 40.9427 12.2891 41.1562 11.6172C41.375 10.9401 41.6875 10.3672 42.0938 9.89844C42.5 9.42969 42.9896 9.07552 43.5625 8.83594C44.1406 8.59115 44.7943 8.46875 45.5234 8.46875C46.4557 8.46875 47.2266 8.625 47.8359 8.9375C48.4505 9.24479 48.9245 9.67188 49.2578 10.2188C49.5911 10.7656 49.8021 11.3906 49.8906 12.0938H47.9688C47.9062 11.6979 47.7839 11.3438 47.6016 11.0312C47.4245 10.7188 47.1693 10.474 46.8359 10.2969C46.5078 10.1146 46.0807 10.0234 45.5547 10.0234C45.1016 10.0234 44.7031 10.1094 44.3594 10.2812C44.0156 10.4531 43.7292 10.7057 43.5 11.0391C43.276 11.3724 43.1068 11.7786 42.9922 12.2578C42.8776 12.737 42.8203 13.2839 42.8203 13.8984V14.7031C42.8203 15.3281 42.8854 15.8828 43.0156 16.3672C43.151 16.8516 43.3438 17.2604 43.5938 17.5938C43.849 17.9271 44.1589 18.1797 44.5234 18.3516C44.888 18.5182 45.2995 18.6016 45.7578 18.6016C46.2057 18.6016 46.5729 18.5651 46.8594 18.4922C47.1458 18.4141 47.3724 18.3229 47.5391 18.2188C47.7109 18.1094 47.8438 18.0052 47.9375 17.9062V15.6484H45.5703V14.1875H49.8906ZM55.6016 20.1562C54.9766 20.1562 54.4115 20.0547 53.9062 19.8516C53.4062 19.6432 52.9792 19.3542 52.625 18.9844C52.276 18.6146 52.0078 18.1797 51.8203 17.6797C51.6328 17.1797 51.5391 16.6406 51.5391 16.0625V15.75C51.5391 15.0885 51.6354 14.4896 51.8281 13.9531C52.0208 13.4167 52.2891 12.9583 52.6328 12.5781C52.9766 12.1927 53.3828 11.8984 53.8516 11.6953C54.3203 11.4922 54.8281 11.3906 55.375 11.3906C55.9792 11.3906 56.5078 11.4922 56.9609 11.6953C57.4141 11.8984 57.7891 12.1849 58.0859 12.5547C58.388 12.9193 58.612 13.3542 58.7578 13.8594C58.9089 14.3646 58.9844 14.9219 58.9844 15.5312V16.3359H52.4531V14.9844H57.125V14.8359C57.1146 14.4974 57.0469 14.1797 56.9219 13.8828C56.8021 13.5859 56.6172 13.3464 56.3672 13.1641C56.1172 12.9818 55.7839 12.8906 55.3672 12.8906C55.0547 12.8906 54.776 12.9583 54.5312 13.0938C54.2917 13.224 54.0911 13.4141 53.9297 13.6641C53.7682 13.9141 53.6432 14.2161 53.5547 14.5703C53.4714 14.9193 53.4297 15.3125 53.4297 15.75V16.0625C53.4297 16.4323 53.4792 16.776 53.5781 17.0938C53.6823 17.4062 53.8333 17.6797 54.0312 17.9141C54.2292 18.1484 54.4688 18.3333 54.75 18.4688C55.0312 18.599 55.3516 18.6641 55.7109 18.6641C56.1641 18.6641 56.5677 18.5729 56.9219 18.3906C57.276 18.2083 57.5833 17.9505 57.8438 17.6172L58.8359 18.5781C58.6536 18.8438 58.4167 19.099 58.125 19.3438C57.8333 19.5833 57.4766 19.7786 57.0547 19.9297C56.638 20.0807 56.1536 20.1562 55.6016 20.1562ZM64.3281 11.5469V12.9219H59.5625V11.5469H64.3281ZM60.9375 9.47656H62.8203V17.6641C62.8203 17.9245 62.8568 18.125 62.9297 18.2656C63.0078 18.401 63.1146 18.4922 63.25 18.5391C63.3854 18.5859 63.5443 18.6094 63.7266 18.6094C63.8568 18.6094 63.9818 18.6016 64.1016 18.5859C64.2214 18.5703 64.3177 18.5547 64.3906 18.5391L64.3984 19.9766C64.2422 20.0234 64.0599 20.0651 63.8516 20.1016C63.6484 20.138 63.4141 20.1562 63.1484 20.1562C62.7161 20.1562 62.3333 20.0807 62 19.9297C61.6667 19.7734 61.4062 19.5208 61.2188 19.1719C61.0312 18.8229 60.9375 18.3594 60.9375 17.7812V9.47656ZM71.0391 8.625L73.6797 14.0547L76.3203 8.625H78.4922L74.6641 15.8125V20H72.6875V15.8125L68.8594 8.625H71.0391ZM78.6719 15.8672V15.6875C78.6719 15.0781 78.7604 14.513 78.9375 13.9922C79.1146 13.4661 79.3698 13.0104 79.7031 12.625C80.0417 12.2344 80.4531 11.9323 80.9375 11.7188C81.4271 11.5 81.9792 11.3906 82.5938 11.3906C83.2135 11.3906 83.7656 11.5 84.25 11.7188C84.7396 11.9323 85.1536 12.2344 85.4922 12.625C85.8307 13.0104 86.0885 13.4661 86.2656 13.9922C86.4427 14.513 86.5312 15.0781 86.5312 15.6875V15.8672C86.5312 16.4766 86.4427 17.0417 86.2656 17.5625C86.0885 18.0833 85.8307 18.5391 85.4922 18.9297C85.1536 19.3151 84.7422 19.6172 84.2578 19.8359C83.7734 20.0495 83.224 20.1562 82.6094 20.1562C81.9896 20.1562 81.4349 20.0495 80.9453 19.8359C80.4609 19.6172 80.0495 19.3151 79.7109 18.9297C79.3724 18.5391 79.1146 18.0833 78.9375 17.5625C78.7604 17.0417 78.6719 16.4766 78.6719 15.8672ZM80.5547 15.6875V15.8672C80.5547 16.2474 80.5938 16.6068 80.6719 16.9453C80.75 17.2839 80.8724 17.5807 81.0391 17.8359C81.2057 18.0911 81.4193 18.2917 81.6797 18.4375C81.9401 18.5833 82.25 18.6562 82.6094 18.6562C82.9583 18.6562 83.2604 18.5833 83.5156 18.4375C83.776 18.2917 83.9896 18.0911 84.1562 17.8359C84.3229 17.5807 84.4453 17.2839 84.5234 16.9453C84.6068 16.6068 84.6484 16.2474 84.6484 15.8672V15.6875C84.6484 15.3125 84.6068 14.9583 84.5234 14.625C84.4453 14.2865 84.3203 13.987 84.1484 13.7266C83.9818 13.4661 83.7682 13.263 83.5078 13.1172C83.2526 12.9661 82.9479 12.8906 82.5938 12.8906C82.2396 12.8906 81.9323 12.9661 81.6719 13.1172C81.4167 13.263 81.2057 13.4661 81.0391 13.7266C80.8724 13.987 80.75 14.2865 80.6719 14.625C80.5938 14.9583 80.5547 15.3125 80.5547 15.6875ZM93.1953 18.0078V11.5469H95.0859V20H93.3047L93.1953 18.0078ZM93.4609 16.25L94.0938 16.2344C94.0938 16.8021 94.0312 17.3255 93.9062 17.8047C93.7812 18.2786 93.5885 18.6927 93.3281 19.0469C93.0677 19.3958 92.7344 19.6693 92.3281 19.8672C91.9219 20.0599 91.4349 20.1562 90.8672 20.1562C90.4557 20.1562 90.0781 20.0964 89.7344 19.9766C89.3906 19.8568 89.0938 19.6719 88.8438 19.4219C88.599 19.1719 88.4089 18.8464 88.2734 18.4453C88.138 18.0443 88.0703 17.5651 88.0703 17.0078V11.5469H89.9531V17.0234C89.9531 17.3307 89.9896 17.5885 90.0625 17.7969C90.1354 18 90.2344 18.1641 90.3594 18.2891C90.4844 18.4141 90.6302 18.5026 90.7969 18.5547C90.9635 18.6068 91.1406 18.6328 91.3281 18.6328C91.8646 18.6328 92.2865 18.5286 92.5938 18.3203C92.9062 18.1068 93.1276 17.8203 93.2578 17.4609C93.3932 17.1016 93.4609 16.6979 93.4609 16.25ZM98.9062 13.1562V20H97.0234V11.5469H98.8203L98.9062 13.1562ZM101.492 11.4922L101.477 13.2422C101.362 13.2214 101.237 13.2057 101.102 13.1953C100.971 13.1849 100.841 13.1797 100.711 13.1797C100.388 13.1797 100.104 13.2266 99.8594 13.3203C99.6146 13.4089 99.4089 13.5391 99.2422 13.7109C99.0807 13.8776 98.9557 14.0807 98.8672 14.3203C98.7786 14.5599 98.7266 14.8281 98.7109 15.125L98.2812 15.1562C98.2812 14.625 98.3333 14.1328 98.4375 13.6797C98.5417 13.2266 98.6979 12.8281 98.9062 12.4844C99.1198 12.1406 99.3854 11.8724 99.7031 11.6797C100.026 11.487 100.398 11.3906 100.82 11.3906C100.935 11.3906 101.057 11.401 101.188 11.4219C101.323 11.4427 101.424 11.4661 101.492 11.4922ZM111.164 15.7578H108.203V14.2031H111.164C111.68 14.2031 112.096 14.1198 112.414 13.9531C112.732 13.7865 112.964 13.5573 113.109 13.2656C113.26 12.9688 113.336 12.6302 113.336 12.25C113.336 11.8906 113.26 11.5547 113.109 11.2422C112.964 10.9245 112.732 10.6693 112.414 10.4766C112.096 10.2839 111.68 10.1875 111.164 10.1875H108.805V20H106.844V8.625H111.164C112.044 8.625 112.792 8.78125 113.406 9.09375C114.026 9.40104 114.497 9.82812 114.82 10.375C115.143 10.9167 115.305 11.5365 115.305 12.2344C115.305 12.9688 115.143 13.599 114.82 14.125C114.497 14.651 114.026 15.0547 113.406 15.3359C112.792 15.6172 112.044 15.7578 111.164 15.7578ZM116.406 15.8672V15.6875C116.406 15.0781 116.495 14.513 116.672 13.9922C116.849 13.4661 117.104 13.0104 117.438 12.625C117.776 12.2344 118.188 11.9323 118.672 11.7188C119.161 11.5 119.714 11.3906 120.328 11.3906C120.948 11.3906 121.5 11.5 121.984 11.7188C122.474 11.9323 122.888 12.2344 123.227 12.625C123.565 13.0104 123.823 13.4661 124 13.9922C124.177 14.513 124.266 15.0781 124.266 15.6875V15.8672C124.266 16.4766 124.177 17.0417 124 17.5625C123.823 18.0833 123.565 18.5391 123.227 18.9297C122.888 19.3151 122.477 19.6172 121.992 19.8359C121.508 20.0495 120.958 20.1562 120.344 20.1562C119.724 20.1562 119.169 20.0495 118.68 19.8359C118.195 19.6172 117.784 19.3151 117.445 18.9297C117.107 18.5391 116.849 18.0833 116.672 17.5625C116.495 17.0417 116.406 16.4766 116.406 15.8672ZM118.289 15.6875V15.8672C118.289 16.2474 118.328 16.6068 118.406 16.9453C118.484 17.2839 118.607 17.5807 118.773 17.8359C118.94 18.0911 119.154 18.2917 119.414 18.4375C119.674 18.5833 119.984 18.6562 120.344 18.6562C120.693 18.6562 120.995 18.5833 121.25 18.4375C121.51 18.2917 121.724 18.0911 121.891 17.8359C122.057 17.5807 122.18 17.2839 122.258 16.9453C122.341 16.6068 122.383 16.2474 122.383 15.8672V15.6875C122.383 15.3125 122.341 14.9583 122.258 14.625C122.18 14.2865 122.055 13.987 121.883 13.7266C121.716 13.4661 121.503 13.263 121.242 13.1172C120.987 12.9661 120.682 12.8906 120.328 12.8906C119.974 12.8906 119.667 12.9661 119.406 13.1172C119.151 13.263 118.94 13.4661 118.773 13.7266C118.607 13.987 118.484 14.2865 118.406 14.625C118.328 14.9583 118.289 15.3125 118.289 15.6875ZM127.734 13.1562V20H125.852V11.5469H127.648L127.734 13.1562ZM130.32 11.4922L130.305 13.2422C130.19 13.2214 130.065 13.2057 129.93 13.1953C129.799 13.1849 129.669 13.1797 129.539 13.1797C129.216 13.1797 128.932 13.2266 128.688 13.3203C128.443 13.4089 128.237 13.5391 128.07 13.7109C127.909 13.8776 127.784 14.0807 127.695 14.3203C127.607 14.5599 127.555 14.8281 127.539 15.125L127.109 15.1562C127.109 14.625 127.161 14.1328 127.266 13.6797C127.37 13.2266 127.526 12.8281 127.734 12.4844C127.948 12.1406 128.214 11.8724 128.531 11.6797C128.854 11.487 129.227 11.3906 129.648 11.3906C129.763 11.3906 129.885 11.401 130.016 11.4219C130.151 11.4427 130.253 11.4661 130.32 11.4922ZM135.766 11.5469V12.9219H131V11.5469H135.766ZM132.375 9.47656H134.258V17.6641C134.258 17.9245 134.294 18.125 134.367 18.2656C134.445 18.401 134.552 18.4922 134.688 18.5391C134.823 18.5859 134.982 18.6094 135.164 18.6094C135.294 18.6094 135.419 18.6016 135.539 18.5859C135.659 18.5703 135.755 18.5547 135.828 18.5391L135.836 19.9766C135.68 20.0234 135.497 20.0651 135.289 20.1016C135.086 20.138 134.852 20.1562 134.586 20.1562C134.154 20.1562 133.771 20.0807 133.438 19.9297C133.104 19.7734 132.844 19.5208 132.656 19.1719C132.469 18.8229 132.375 18.3594 132.375 17.7812V9.47656ZM139.117 8V20H137.227V8H139.117ZM144.367 11.5469L140.688 15.625L138.672 17.6875L138.18 16.0938L139.703 14.2109L142.094 11.5469H144.367ZM142.5 20L139.758 16.0312L140.945 14.7109L144.68 20H142.5ZM149.133 20.1562C148.508 20.1562 147.943 20.0547 147.438 19.8516C146.938 19.6432 146.51 19.3542 146.156 18.9844C145.807 18.6146 145.539 18.1797 145.352 17.6797C145.164 17.1797 145.07 16.6406 145.07 16.0625V15.75C145.07 15.0885 145.167 14.4896 145.359 13.9531C145.552 13.4167 145.82 12.9583 146.164 12.5781C146.508 12.1927 146.914 11.8984 147.383 11.6953C147.852 11.4922 148.359 11.3906 148.906 11.3906C149.51 11.3906 150.039 11.4922 150.492 11.6953C150.945 11.8984 151.32 12.1849 151.617 12.5547C151.919 12.9193 152.143 13.3542 152.289 13.8594C152.44 14.3646 152.516 14.9219 152.516 15.5312V16.3359H145.984V14.9844H150.656V14.8359C150.646 14.4974 150.578 14.1797 150.453 13.8828C150.333 13.5859 150.148 13.3464 149.898 13.1641C149.648 12.9818 149.315 12.8906 148.898 12.8906C148.586 12.8906 148.307 12.9583 148.062 13.0938C147.823 13.224 147.622 13.4141 147.461 13.6641C147.299 13.9141 147.174 14.2161 147.086 14.5703C147.003 14.9193 146.961 15.3125 146.961 15.75V16.0625C146.961 16.4323 147.01 16.776 147.109 17.0938C147.214 17.4062 147.365 17.6797 147.562 17.9141C147.76 18.1484 148 18.3333 148.281 18.4688C148.562 18.599 148.883 18.6641 149.242 18.6641C149.695 18.6641 150.099 18.5729 150.453 18.3906C150.807 18.2083 151.115 17.9505 151.375 17.6172L152.367 18.5781C152.185 18.8438 151.948 19.099 151.656 19.3438C151.365 19.5833 151.008 19.7786 150.586 19.9297C150.169 20.0807 149.685 20.1562 149.133 20.1562ZM156.328 19.0781L158.625 11.5469H160.641L157.25 21.2891C157.172 21.4974 157.07 21.724 156.945 21.9688C156.82 22.2135 156.656 22.4453 156.453 22.6641C156.255 22.888 156.008 23.0677 155.711 23.2031C155.414 23.3438 155.055 23.4141 154.633 23.4141C154.466 23.4141 154.305 23.3984 154.148 23.3672C153.997 23.3411 153.854 23.3125 153.719 23.2812L153.711 21.8438C153.763 21.849 153.826 21.8542 153.898 21.8594C153.977 21.8646 154.039 21.8672 154.086 21.8672C154.398 21.8672 154.659 21.8281 154.867 21.75C155.076 21.6771 155.245 21.5573 155.375 21.3906C155.51 21.224 155.625 21 155.719 20.7188L156.328 19.0781ZM155.031 11.5469L157.039 17.875L157.375 19.8594L156.07 20.1953L153 11.5469H155.031ZM174.914 8.625V20H172.953L167.852 11.8516V20H165.891V8.625H167.852L172.969 16.7891V8.625H174.914ZM176.703 15.8672V15.6875C176.703 15.0781 176.792 14.513 176.969 13.9922C177.146 13.4661 177.401 13.0104 177.734 12.625C178.073 12.2344 178.484 11.9323 178.969 11.7188C179.458 11.5 180.01 11.3906 180.625 11.3906C181.245 11.3906 181.797 11.5 182.281 11.7188C182.771 11.9323 183.185 12.2344 183.523 12.625C183.862 13.0104 184.12 13.4661 184.297 13.9922C184.474 14.513 184.562 15.0781 184.562 15.6875V15.8672C184.562 16.4766 184.474 17.0417 184.297 17.5625C184.12 18.0833 183.862 18.5391 183.523 18.9297C183.185 19.3151 182.773 19.6172 182.289 19.8359C181.805 20.0495 181.255 20.1562 180.641 20.1562C180.021 20.1562 179.466 20.0495 178.977 19.8359C178.492 19.6172 178.081 19.3151 177.742 18.9297C177.404 18.5391 177.146 18.0833 176.969 17.5625C176.792 17.0417 176.703 16.4766 176.703 15.8672ZM178.586 15.6875V15.8672C178.586 16.2474 178.625 16.6068 178.703 16.9453C178.781 17.2839 178.904 17.5807 179.07 17.8359C179.237 18.0911 179.451 18.2917 179.711 18.4375C179.971 18.5833 180.281 18.6562 180.641 18.6562C180.99 18.6562 181.292 18.5833 181.547 18.4375C181.807 18.2917 182.021 18.0911 182.188 17.8359C182.354 17.5807 182.477 17.2839 182.555 16.9453C182.638 16.6068 182.68 16.2474 182.68 15.8672V15.6875C182.68 15.3125 182.638 14.9583 182.555 14.625C182.477 14.2865 182.352 13.987 182.18 13.7266C182.013 13.4661 181.799 13.263 181.539 13.1172C181.284 12.9661 180.979 12.8906 180.625 12.8906C180.271 12.8906 179.964 12.9661 179.703 13.1172C179.448 13.263 179.237 13.4661 179.07 13.7266C178.904 13.987 178.781 14.2865 178.703 14.625C178.625 14.9583 178.586 15.3125 178.586 15.6875ZM188.438 18.125L190.391 11.5469H191.594L191.266 13.5156L189.297 20H188.219L188.438 18.125ZM187.289 11.5469L188.812 18.1562L188.938 20H187.734L185.445 11.5469H187.289ZM193.422 18.0781L194.898 11.5469H196.734L194.453 20H193.25L193.422 18.0781ZM191.797 11.5469L193.727 18.0469L193.969 20H192.891L190.898 13.5078L190.57 11.5469H191.797Z" fill="white"/>
</svg>
